<?xml version="1.0" encoding="UTF-8"?>
<svg width="32px" height="32px" viewBox="0 0 32 32" version="1.1" xmlns="http://www.w3.org/2000/svg" xmlns:xlink="http://www.w3.org/1999/xlink">
    <!-- Generator: Sketch 48.2 (47327) - http://www.bohemiancoding.com/sketch -->
    <title>ic_plus_disabled</title>
    <desc>Created with Sketch.</desc>
    <defs></defs>
    <g id="assets" stroke="none" stroke-width="1" fill="none" fill-rule="evenodd" transform="translate(-221.000000, -133.000000)">
        <g id="ic_plus_disabled" transform="translate(221.000000, 133.000000)">
            <circle id="PrimaryShade3-Copy-3" cx="16" cy="16" r="16"></circle>
            <path d="M15,15 L15,8.88888889 C15,8.39796911 15.4477153,8 16,8 C16.5522847,8 17,8.39796911 17,8.88888889 L17,15 L23.1111111,15 C23.6020309,15 24,15.4477153 24,16 C24,16.5522847 23.6020309,17 23.1111111,17 L17,17 L17,23.1111111 C17,23.6020309 16.5522847,24 16,24 C15.4477153,24 15,23.6020309 15,23.1111111 L15,17 L8.88888889,17 C8.39796911,17 8,16.5522847 8,16 C8,15.4477153 8.39796911,15 8.88888889,15 L15,15 Z" id="PrimaryMain-Copy-3" fill="#00151A" opacity="0.25"></path>
        </g>
    </g>
</svg>